<?xml version="1.0" standalone="no"?>
<!DOCTYPE svg PUBLIC "-//W3C//DTD SVG 1.1//EN" "http://www.w3.org/Graphics/SVG/1.1/DTD/svg11.dtd">
<svg xmlns="http://www.w3.org/2000/svg">
<metadata>Copyright (C) 2016 by original authors @ fontello.com</metadata>
<defs>
<font id="fontello" horiz-adv-x="1000" >
<font-face font-family="fontello" font-weight="400" font-stretch="normal" units-per-em="1000" ascent="850" descent="-150" />
<missing-glyph horiz-adv-x="1000" />
<glyph glyph-name="menu" unicode="&#xe800;" d="M650 400q22 0 36-15t14-35-15-35-35-15l-600 0q-20 0-35 15t-15 35 14 35 36 15l600 0z m-600 100q-20 0-35 15t-15 35 14 35 36 15l600 0q22 0 36-15t14-35-15-35-35-15l-600 0z m600-300q22 0 36-15t14-35-15-35-35-15l-600 0q-20 0-35 15t-15 35 14 35 36 15l600 0z" horiz-adv-x="700" />

<glyph glyph-name="tags" unicode="&#xe802;" d="M250 600q0 30-21 51t-50 20-51-20-21-51 21-50 51-21 50 21 21 50z m595-321q0-30-20-51l-274-274q-22-21-51-21-30 0-50 21l-399 399q-21 21-36 57t-15 65v232q0 29 21 50t50 22h233q29 0 65-15t57-36l399-399q20-21 20-50z m215 0q0-30-21-51l-274-274q-22-21-51-21-20 0-33 8t-29 25l262 262q21 21 21 51 0 29-21 50l-399 399q-21 21-57 36t-65 15h125q29 0 65-15t57-36l399-399q21-21 21-50z" horiz-adv-x="1071.4" />

<glyph glyph-name="plus" unicode="&#xe803;" d="M1000 361v-22h-489v-489h-22v489h-488v22h488v489h22v-489h489z" horiz-adv-x="1000" />

<glyph glyph-name="x" unicode="&#xe804;" d="M986-59a47 47 0 0 0 0-67l-10-10a47 47 0 0 0-67 0l-409 409-409-409a47 47 0 0 0-67 0l-10 10a47 47 0 0 0 0 67l409 409-409 409a47 47 0 0 0 0 67l10 10a47 47 0 0 0 67 0l409-409 409 409a47 47 0 0 0 67 0l10-10a47 47 0 0 0 0-67l-409-409z" horiz-adv-x="1000" />

<glyph glyph-name="whatsapp" unicode="&#xe805;" d="M505 850a487 487 0 0 1-417-739l-88-261 270 86a487 487 0 1 1 235 914z m0-893a403 403 0 0 0-223 67l-156-49 51 150a405 405 0 1 0 328-168z m229 295c-13 7-73 39-84 44s-19 7-28-5-34-40-41-48-15-8-27-2a339 339 0 0 0-98 66 376 376 0 0 0-66 88c-7 13 0 20 6 26s13 14 20 21a85 85 0 0 1 13 20 23 23 0 0 1 0 22c-3 6-26 69-35 94s-20 21-27 22-16 1-24 2a46 46 0 0 1-34-15c-12-12-45-40-47-102s40-122 46-130 81-141 205-196 125-38 148-36 75 27 86 55 13 54 10 59-11 9-23 15z" horiz-adv-x="992" />

<glyph glyph-name="play" unicode="&#xe807;" d="M201 795l639-450-639-450v900z" horiz-adv-x="1000" />

<glyph glyph-name="twitter" unicode="&#xe80a;" d="M861 523q0-12 0-24c0-244-185-525-525-525a523 523 0 0 0-283 83 373 373 0 0 1 273 77 185 185 0 0 0-172 128 185 185 0 0 1 83 3 185 185 0 0 0-148 181c0 1 0 2 0 2a184 184 0 0 1 84-23 185 185 0 0 0-57 247 524 524 0 0 1 380-193 185 185 0 0 0 315 168 369 369 0 0 1 117 45 185 185 0 0 0-81-102 369 369 0 0 1 106 29 376 376 0 0 0-92-96z" horiz-adv-x="1000" />

<glyph glyph-name="facebook" unicode="&#xe80b;" d="M736 648h-82s-84 7-84-70v-107h157l-19-159h-138v-412h-165v412h-141v159h141v122s-8 212 198 207c57-1 100-2 133-3v-149z" horiz-adv-x="1000" />

<glyph glyph-name="gplus" unicode="&#xe80c;" d="M352 53a286 286 0 1 0 0 573 275 275 0 0 0 192-75l-78-75a161 161 0 0 1-114 44c-98 0-178-81-178-181s80-180 178-180c113 0 155 81 162 123h-162v99h270a263 263 0 0 0 5-48c0-163-110-280-275-280z m613 246h-81v-82h-82v82h-82v82h82v81h82v-81h81v-82z" horiz-adv-x="1000" />

<glyph glyph-name="youtube" unicode="&#xe80d;" d="M934 555a114 114 0 0 1-97 89c-111 13-224 13-337 13s-225 0-337-13a114 114 0 0 1-97-89c-16-69-16-144-16-215s0-146 16-215a114 114 0 0 1 97-90c112-13 224-13 337-13s225 0 337 13a114 114 0 0 1 97 89c16 69 16 145 16 215s0 147-16 216z m-515-358v286l196-143z" horiz-adv-x="1000" />

<glyph glyph-name="instagram" unicode="&#xe80e;" d="M919 761a112 112 0 0 1-82 35h-669a115 115 0 0 1-81-35 110 110 0 0 1-34-81v-670a107 107 0 0 1 34-81 112 112 0 0 1 81-35h669a115 115 0 0 1 82 35 110 110 0 0 1 34 81v670a107 107 0 0 1-34 81z m-543-290a175 175 0 0 0 127 52 179 179 0 0 0 129-52 166 166 0 0 0 53-124 171 171 0 0 0-54-124 176 176 0 0 0-128-51 179 179 0 0 0-127 51q-54 52-53 124a171 171 0 0 0 53 124z m475-437a36 36 0 0 0-36-36h-626a36 36 0 0 0-26 11 34 34 0 0 0-10 25v380h83a254 254 0 0 1-12-77q0-112 82-192a273 273 0 0 1 197-80 278 278 0 0 1 141 37 281 281 0 0 1 102 99 257 257 0 0 1 38 136 254 254 0 0 1-12 77h79v-380z m0 524a40 40 0 0 0-12-29 39 39 0 0 0-28-12h-103a39 39 0 0 0-28 12 40 40 0 0 0-11 29v97a39 39 0 0 0 40 40h102a34 34 0 0 0 29-12 41 41 0 0 0 11-28v-97z" horiz-adv-x="1000" />

<glyph glyph-name="down" unicode="&#xe812;" d="M63 570l370-356 372 356q22 26 48 0 26-22 0-48l-396-392q-22-22-48 0l-396 392q-26 26 0 48 24 24 50 0z" horiz-adv-x="866" />

<glyph glyph-name="left" unicode="&#xe813;" d="M452-20q26-26 0-48-26-26-48 0l-392 394q-24 24 0 50l392 394q22 26 48 0 26-22 0-48l-358-372z" horiz-adv-x="465" />

<glyph glyph-name="right" unicode="&#xe814;" d="M13-20l358 370-358 372q-26 26 0 48 26 26 48 0l392-394q24-26 0-50l-392-394q-22-26-48 0-26 22 0 48z" horiz-adv-x="465" />

<glyph glyph-name="up" unicode="&#xe815;" d="M804 130l-372 358-370-358q-26-22-50 0-24 24 0 50l396 390q26 26 48 0l396-390q24-26 0-50-26-22-48 0z" horiz-adv-x="864" />

<glyph glyph-name="pinterest" unicode="&#xe817;" d="M438 200c-24-124-53-243-138-305-27 187 39 328 69 477-52 87 6 262 115 219 134-53-116-323 52-357 175-35 246 304 138 414-157 159-457 4-420-224 9-56 66-73 23-149-101 22-131 101-127 207 6 172 156 293 305 310 189 21 367-69 391-247 28-201-85-418-287-403-55 5-78 32-121 58z" horiz-adv-x="1000" />

<glyph glyph-name="share" unicode="&#xe818;" d="M763 217a161 161 0 0 1-127-63l-248 138a161 161 0 0 1 9 53 158 158 0 0 1-9 53l247 138a161 161 0 1 1-33 98 157 157 0 0 1 9-53l-247-138a161 161 0 1 1 1-195l247-138a161 161 0 1 1 151 107z m0 527a111 111 0 1 0-110-110 111 111 0 0 0 110 110z m-526-509a111 111 0 1 0 110 110 111 111 0 0 0-110-110z m526-289a111 111 0 1 0 111 110 111 111 0 0 0-111-110z" horiz-adv-x="1000" />

<glyph glyph-name="linkedin" unicode="&#xe826;" d="M245 612a105 105 0 0 0-78-32 105 105 0 0 0-77 32 105 105 0 0 0-32 77 103 103 0 0 0 32 76 106 106 0 0 0 155 0 103 103 0 0 0 31-76 105 105 0 0 0-31-77z m26-120v-567a34 34 0 0 0-7-16 34 34 0 0 0-16-7h-162a34 34 0 0 0-15 7 34 34 0 0 0-7 16v567a34 34 0 0 0 7 16 34 34 0 0 0 15 7h162a34 34 0 0 0 16-7 34 34 0 0 0 7-16z m461-153q-20 22-64 22-56 0-81-34-22-33-22-95v-308a24 24 0 0 0-23-22h-162a34 34 0 0 0-16 7 34 34 0 0 0-7 15v568a34 34 0 0 0 7 16 34 34 0 0 0 16 7h156a32 32 0 0 0 15-3c2-2 4-6 7-13v-9l1-3v-14q58 56 160 56 115 0 176-54 63-58 63-167v-384a24 24 0 0 0-22-23h-166a24 24 0 0 0-23 23v347q0 44-15 68z" horiz-adv-x="1000" />

<glyph glyph-name="snapchat" unicode="&#xe828;" d="M952 132l-31 8a218 218 0 0 0-153 142l-1 4a99 99 0 0 0-5 28v1a31 31 0 0 0 25 31 554 554 0 0 1 70 20 33 33 0 0 1 22 39 32 32 0 0 1-40 22 314 314 0 0 0-37-12 32 32 0 0 0-40 31v83a243 243 0 0 1-243 244h0a243 243 0 0 1-244-244v-84c0-20-20-37-39-30-15 5-18 9-41 17a33 33 0 0 1-40-15 32 32 0 0 1 19-45c34-12 42-18 77-26a31 31 0 0 0 24-30h0a99 99 0 0 0-6-35h0a217 217 0 0 0-153-141l-31-8a22 22 0 0 1 1-42l72-12a43 43 0 0 0 36-38h0a43 43 0 0 1 55-37l9 3a139 139 0 0 0 136-35l1-1a175 175 0 0 1 247 0l1 1a138 138 0 0 0 136 35l8-3a43 43 0 0 1 55 37h0a43 43 0 0 0 36 38l72 12a22 22 0 0 1 2 42z" horiz-adv-x="1000" />

<glyph glyph-name="search" unicode="&#xe82a;" d="M684 235a349 349 0 1 1-66-66l274-274 66 66z m-278-44a255 255 0 1 0 256 255 256 256 0 0 0-255-255z" horiz-adv-x="1000" />

<glyph glyph-name="ok" unicode="&#xe830;" d="M340 68l-315 360 107 94 228-260 529 405 86-112z" horiz-adv-x="1000" />

<glyph glyph-name="email" unicode="&#xe833;" d="M129 606h742l60 48a27 27 0 0 0 19 5c-1 0-1 0-2 0h-896c-1 0-1 0-1 0a27 27 0 0 0 18-5z m845 30a27 27 0 0 0-9-25l-44-35v-503h-842v503l-44 35a27 27 0 0 0-9 25 25 25 0 0 1-1-4v-586a27 27 0 0 1 27-27h896a27 27 0 0 1 27 27v587a25 25 0 0 1-1 3z m-929 22a26 26 0 0 1-5-1 27 27 0 0 0 5 1z m-9-4a26 26 0 0 1-4-4 26 26 0 0 0 4 4z m932-4a26 26 0 0 1-4 4 26 26 0 0 0 4-4z m3-4a27 27 0 0 0 2-5 26 26 0 0 1-2 5z m-16 12a27 27 0 0 0 5-1 26 26 0 0 1-5 1z m-928-17a27 27 0 0 0 2 5 26 26 0 0 1-2-5z m8-30l44-35 404-323a27 27 0 0 1 34 0l404 323 44 35a27 27 0 0 1 9 25 26 26 0 0 1-1 5 27 27 0 0 1-2 5 25 25 0 0 1-2 3c0 1-1 1-1 1a51 51 0 0 1-8 7 28 28 0 0 1-29-4l-60-47-371-298-371 298-60 48a27 27 0 0 1-19 5 26 26 0 0 1-5-1 26 26 0 0 1-5-1 26 26 0 0 1-4-3 26 26 0 0 1-4-4c0 0-1-1-1-1a25 25 0 0 1-2-3 27 27 0 0 1-2-5 26 26 0 0 1-1-5 27 27 0 0 1 9-25z" horiz-adv-x="1000" />

<glyph glyph-name="phone" unicode="&#xe834;" d="M937 141c44-44 44-103 0-148-8-7-15-15-23-22-15-14-29-28-42-43-32-36-72-53-123-53-4 0-8 0-13 0-59 3-119 21-189 55a1004 1004 0 0 0-331 259c-75 88-127 177-162 270-16 41-33 96-28 158a148 148 0 0 0 46 99c15 14 29 29 43 43 10 10 20 20 30 29 43 43 101 43 145 0 13-13 26-26 40-39l76-77c45-45 45-103 0-148l-9-9c-19-19-38-38-57-57a408 408 0 0 1 58-89c55-68 112-120 174-159 8-5 17-9 26-13l11-6c21 22 43 44 65 65 45 45 103 45 147 2h0q58-58 116-117z m-42-42q-58 58-116 116c-20 20-42 20-62 0-25-25-49-48-72-72-16-17-37-20-56-9-6 3-12 6-18 9-10 5-21 10-31 17-67 42-129 98-189 171-31 40-53 75-69 112a45 45 0 0 0 10 52c21 20 42 41 62 62l10 9c21 22 21 42 0 64l-77 77c-13 13-26 26-39 39-10 10-20 15-31 15s-20-5-30-15-20-19-29-29c-15-15-29-30-45-44a88 88 0 0 1-28-60c-2-39 5-80 25-133 32-87 82-169 151-252a945 945 0 0 1 312-244c64-31 115-46 166-49 39-2 66 8 88 33 14 16 30 31 45 46 8 7 15 14 23 22 21 21 21 42 0 63z m-224 554a36 36 0 0 1-20-68 167 167 0 0 0 67-41 163 163 0 0 0 32-47 36 36 0 0 1 34-20 36 36 0 0 1 30 51 239 239 0 0 1-143 125z m-26 87a338 338 0 0 0 264-246 31 31 0 0 1 31-24l6 0a31 31 0 0 1 28 39 405 405 0 0 1-317 298 31 31 0 0 1-38-29l0-6a31 31 0 0 1 26-32z" horiz-adv-x="1000" />

<glyph glyph-name="clock" unicode="&#xe835;" d="M500 825a475 475 0 1 1 475-475 476 476 0 0 1-475 475z m0-890a415 415 0 1 0 415 415 416 416 0 0 0-415-415z m222 366a30 30 0 0 0-30-30h-192a30 30 0 0 0-30 30v336a30 30 0 1 0 60 0v-306h162a30 30 0 0 0 30-30z" horiz-adv-x="1000" />

<glyph glyph-name="download" unicode="&#xf02e;" d="M0 84v73q0 33 24 56t57 24 56-24 24-56v-73q0-17 12-29t30-13h531q18 0 30 13t12 29v73q0 33 24 56t56 24 57-24 24-56v-73q0-84-59-143t-144-60h-531q-84 0-144 60t-59 143z m155 359q0 33 24 57 23 23 56 23t57-23l105-106v344q0 33 24 57t56 23 57-23 24-57v-344l110 110q24 24 57 24t56-24q24-23 24-56t-24-57l-247-247q-24-25-57-25-32 0-56 25l-242 242q-24 24-24 57z" horiz-adv-x="937.5" />

<glyph glyph-name="euro" unicode="&#xf153;" d="M545 121l19-89q2-7-1-13t-10-8l-3 0q-2-1-6-2t-9-3-12-3-14-3-16-2-19-3-21-2-21 0q-131 0-228 73t-133 196h-53q-7 0-13 5t-5 13v63q0 7 5 12t13 6h37q-1 31 0 58h-37q-8 0-13 5t-5 13v64q0 8 5 13t13 5h55q37 117 135 188t224 72q57 0 108-13 6-2 11-9 4-6 2-13l-24-89q-2-7-8-11t-13-1l-2 1q-3 0-7 1l-10 2t-12 2-15 2-16 1-16 1q-71 0-126-36t-84-98h261q9 0 14-7 6-7 4-15l-13-63q-3-15-18-15h-273q-1-20 0-58h257q8 0 13-7 5-7 4-15l-14-63q-1-6-6-10t-11-4h-216q27-65 84-104t127-38q10 0 20 1t19 2 16 2 14 3 10 3l7 1 3 2q7 2 14-2 7-3 9-11z" horiz-adv-x="571.4" />
</font>
</defs>
</svg>
